<?xml version="1.0" encoding="utf-8"?>
<!-- Generator: Adobe Illustrator 25.4.1, SVG Export Plug-In . SVG Version: 6.00 Build 0)  -->
<svg version="1.1" id="图层_1" xmlns="http://www.w3.org/2000/svg" xmlns:xlink="http://www.w3.org/1999/xlink" x="0px" y="0px"
	 viewBox="0 0 200 200" style="enable-background:new 0 0 200 200;" xml:space="preserve">
<style type="text/css">
	.st0{fill-rule:evenodd;clip-rule:evenodd;fill:#FFFFFF;}
	.st1{fill:#1EBC61;}
	.st2{fill:#FFFFFF;}
</style>
<g>
	<path class="st0" d="M126.6,42.6c-2.2,4.4-3.3,9.2-3.3,14.1c0,17.6,14.3,31.8,32,31.8c0.2,0,0.5,0,0.7,0v44.5
		c0,5.4-2.9,10.3-7.5,13l-56.7,32.5c-4.7,2.7-10.4,2.7-15.1,0L20,146c-4.7-2.7-7.5-7.6-7.5-13V68.1c0-5.3,2.9-10.3,7.5-13l56.7-32.5
		c4.7-2.7,10.4-2.7,15.1,0L126.6,42.6z"/>
	<path class="st1" d="M132,36.5c-2.4,4.8-3.6,10.1-3.6,15.5c0,19.2,15.7,34.8,35.1,34.8c0.2,0,0.5,0,0.7,0v48.8
		c0,5.9-3.2,11.3-8.3,14.2l-62.1,35.6c-5.1,2.9-11.4,2.9-16.5,0l-62.1-35.6c-5.1-2.9-8.3-8.3-8.3-14.2V64.4c0-5.9,3.1-11.3,8.3-14.2
		l62.1-35.6c5.1-2.9,11.4-2.9,16.5,0L132,36.5z M51.4,69c-2.3,0-4.1,1.8-4.1,4.1v2c0,2.3,1.8,4.1,4.1,4.1h69.7
		c2.3,0,4.1-1.8,4.1-4.1v-2c0-2.3-1.9-4.1-4.1-4.1H51.4L51.4,69z M51.4,94.3c-2.3,0-4.1,1.8-4.1,4.1v2c0,2.3,1.8,4.1,4.1,4.1H102
		c2.3,0,4.1-1.8,4.1-4.1v-2c0-2.3-1.8-4.1-4.1-4.1C102,94.3,51.4,94.3,51.4,94.3z M51.4,119.5c-2.3,0-4.1,1.8-4.1,4.1v2
		c0,2.3,1.8,4.1,4.1,4.1h69.7c2.3,0,4.1-1.8,4.1-4.1v-2c0-2.3-1.9-4.1-4.1-4.1H51.4L51.4,119.5z M164.1,80
		c-16,0-28.9-12.8-28.9-28.7c0-15.8,12.9-28.7,28.9-28.7c16,0,28.9,12.8,28.9,28.7C193,67.1,180.1,80,164.1,80
		C164.1,80,164.1,80,164.1,80z"/>
	<path class="st2" d="M173.5,56.2c0-1.3-0.2-2.4-0.7-3.4c-0.4-0.9-1.1-1.8-1.9-2.4c-0.8-0.7-1.8-1.2-2.8-1.5
		c-1.1-0.3-2.3-0.5-3.4-0.5c-0.4,0-0.8,0-1.2,0c-0.4,0-0.8,0.1-1.2,0.2l0.2-3.8h9.8V40h-14.9l-0.6,13.8c0.9-0.3,1.9-0.6,3-0.8
		c1.1-0.2,2.1-0.3,3-0.3c0.6,0,1.2,0.1,1.8,0.2c0.6,0.1,1.1,0.3,1.6,0.6c0.5,0.3,0.9,0.7,1.2,1.1c0.3,0.5,0.4,1.1,0.4,1.8
		c0,1.2-0.4,2-1.1,2.6c-0.7,0.6-1.6,0.9-2.6,0.9c-1,0-1.8-0.3-2.5-0.8c-0.7-0.5-1.2-1.2-1.4-2.1l-5.3,1.6c0.3,1,0.7,1.8,1.3,2.6
		c0.6,0.8,1.3,1.4,2.1,1.9c0.8,0.5,1.7,0.9,2.7,1.2c1,0.3,2,0.4,3.1,0.4c1.2,0,2.4-0.2,3.5-0.5c1.1-0.4,2.1-0.9,3-1.6
		c0.9-0.7,1.6-1.6,2.1-2.7C173.2,59,173.5,57.7,173.5,56.2C173.5,56.2,173.5,56.2,173.5,56.2z"/>
</g>
</svg>
